<svg width="100%" height="100%" viewBox="0 0 2400 900" preserveAspectRatio="xMidYMid slice" xmlns="http://www.w3.org/2000/svg">
  <defs>
    <linearGradient id="bg" x1="0%" y1="0%" x2="100%" y2="100%">
      <stop offset="0%" stop-color="#0a1a20"/>
      <stop offset="50%" stop-color="#040d10"/>
      <stop offset="100%" stop-color="#0a1a1f"/>
    </linearGradient>
  </defs>
  <rect width="2400" height="900" fill="url(#bg)"/>
  <g stroke="white" stroke-width="3" stroke-linecap="round">
    <line x1="55" y1="80" x2="55" y2="130"/><line x1="75" y1="200" x2="75" y2="260"/><line x1="90" y1="120" x2="90" y2="165"/><line x1="110" y1="310" x2="110" y2="370"/><line x1="65" y1="400" x2="65" y2="435"/><line x1="130" y1="500" x2="130" y2="550"/><line x1="80" y1="600" x2="80" y2="645"/><line x1="55" y1="700" x2="55" y2="755"/><line x1="100" y1="760" x2="100" y2="800"/><line x1="145" y1="160" x2="145" y2="210"/><line x1="170" y1="450" x2="170" y2="495"/><line x1="160" y1="650" x2="160" y2="700"/><line x1="190" y1="270" x2="190" y2="315"/><line x1="210" y1="560" x2="210" y2="605"/><line x1="230" y1="380" x2="230" y2="430"/><line x1="250" y1="720" x2="250" y2="758"/><line x1="270" y1="100" x2="270" y2="140"/><line x1="285" y1="480" x2="285" y2="525"/><line x1="300" y1="340" x2="300" y2="375"/><line x1="315" y1="620" x2="315" y2="665"/><line x1="330" y1="200" x2="330" y2="245" opacity="0.6"/><line x1="345" y1="750" x2="345" y2="785" opacity="0.5"/><line x1="360" y1="420" x2="360" y2="455" opacity="0.4"/><line x1="375" y1="550" x2="375" y2="580" opacity="0.3"/><line x1="390" y1="300" x2="390" y2="325" opacity="0.2"/><line x1="120" y1="840" x2="120" y2="878" opacity="0.5"/><line x1="200" y1="810" x2="200" y2="848" opacity="0.4"/><line x1="60" y1="480" x2="60" y2="520"/><line x1="175" y1="70" x2="175" y2="108"/><line x1="240" y1="580" x2="240" y2="622" opacity="0.7"/>
    <line x1="2345" y1="80" x2="2345" y2="130"/><line x1="2325" y1="200" x2="2325" y2="260"/><line x1="2310" y1="120" x2="2310" y2="165"/><line x1="2290" y1="310" x2="2290" y2="370"/><line x1="2335" y1="400" x2="2335" y2="435"/><line x1="2270" y1="500" x2="2270" y2="550"/><line x1="2320" y1="600" x2="2320" y2="645"/><line x1="2345" y1="700" x2="2345" y2="755"/><line x1="2300" y1="760" x2="2300" y2="800"/><line x1="2255" y1="160" x2="2255" y2="210"/><line x1="2230" y1="450" x2="2230" y2="495"/><line x1="2240" y1="650" x2="2240" y2="700"/><line x1="2210" y1="270" x2="2210" y2="315"/><line x1="2190" y1="560" x2="2190" y2="605"/><line x1="2170" y1="380" x2="2170" y2="430"/><line x1="2150" y1="720" x2="2150" y2="758"/><line x1="2130" y1="100" x2="2130" y2="140"/><line x1="2115" y1="480" x2="2115" y2="525"/><line x1="2100" y1="340" x2="2100" y2="375"/><line x1="2085" y1="620" x2="2085" y2="665"/><line x1="2070" y1="200" x2="2070" y2="245" opacity="0.6"/><line x1="2055" y1="750" x2="2055" y2="785" opacity="0.5"/><line x1="2040" y1="420" x2="2040" y2="455" opacity="0.4"/><line x1="2025" y1="550" x2="2025" y2="580" opacity="0.3"/><line x1="2010" y1="300" x2="2010" y2="325" opacity="0.2"/><line x1="2280" y1="840" x2="2280" y2="878" opacity="0.5"/><line x1="2200" y1="810" x2="2200" y2="848" opacity="0.4"/><line x1="2340" y1="480" x2="2340" y2="520"/><line x1="2225" y1="70" x2="2225" y2="108"/><line x1="2160" y1="580" x2="2160" y2="622" opacity="0.7"/>
  </g>
</svg>
