<svg xmlns="http://www.w3.org/2000/svg" viewBox="0 0 980 220" role="img" aria-label="tsumit logo lockup">
  <rect width="980" height="220" fill="#FFFFFF" />
  <g transform="translate(20 34)">
    <path d="M54 42h34c22 0 36 14 36 35 0 16-8 27-22 32l32 29H103L75 113H54v25H37V59c0-11 6-17 17-17Zm0 57h31c14 0 23-8 23-21 0-13-9-22-23-22H54Z" fill="#0A84FF" />
    <path d="M150 42h15c10 0 16 6 16 16v64h17v16h-33c-10 0-16-6-16-16V42Z" fill="#0A84FF" />
    <circle cx="171" cy="30" r="8" fill="#0A84FF" />
  </g>
  <g transform="translate(256 38)" fill="#111111">
    <path d="M54 52h62v15H92v60c0 6 3 9 9 9h15v14H96c-13 0-20-8-20-20V67H54Z" />
    <path d="M137 121c7 11 20 16 37 16 16 0 25-5 25-13 0-7-5-11-16-13l-19-4c-18-4-28-14-28-29 0-19 16-31 41-31 18 0 33 6 42 18l-11 10c-7-9-17-13-31-13-14 0-23 5-23 13 0 7 5 11 15 13l20 4c19 4 29 14 29 29 0 19-17 31-44 31-22 0-39-7-49-21Z" />
    <path d="M251 49h16v55c0 20 10 31 28 31 18 0 30-12 30-31V49h16v57c0 29-19 47-46 47-26 0-44-18-44-47Z" />
    <path d="M386 49h16v12c8-9 18-14 31-14 14 0 25 6 31 18 7-12 19-18 35-18 24 0 38 16 38 41v62h-16V92c0-19-8-29-24-29-15 0-26 11-26 29v58h-16V90c0-17-9-27-24-27-15 0-28 12-28 30v57h-16Z" />
    <path d="M577 24a10 10 0 1 1 0 20 10 10 0 0 1 0-20Zm-8 25h16v101h-16Z" />
    <path d="M607 52h62v15h-24v60c0 6 3 9 9 9h15v14h-20c-13 0-20-8-20-20V67h-22Z" />
  </g>
</svg>
