<svg xmlns="http://www.w3.org/2000/svg" viewBox="0 0 520 160" role="img" aria-label="tsumi wordmark">
  <rect width="520" height="160" fill="#FFFFFF" />
  <g fill="none" stroke="#111111" stroke-linecap="round" stroke-linejoin="round" stroke-width="16">
    <path d="M38 46h54" />
    <path d="M64 32v94" />
    <path d="M140 60c10-12 31-14 45-6 11 7 15 21 7 31-6 8-16 11-28 14l-10 2c-14 3-23 8-28 18-5 10-1 23 12 29 15 8 40 6 57-9" />
    <path d="M224 60v39c0 20 12 31 31 31 18 0 31-11 31-31V60" />
    <path d="M324 130V60" />
    <path d="M324 86c0-16 11-28 28-28 17 0 29 12 29 30v42" />
    <path d="M381 86c0-16 11-28 28-28 17 0 29 12 29 30v42" />
    <path d="M478 60v70" />
  </g>
  <circle cx="478" cy="34" r="9" fill="#111111" />
</svg>
