<svg xmlns="http://www.w3.org/2000/svg" viewBox="0 0 720 200" role="img" aria-label="tsumi logo lockup">
  <rect width="720" height="200" fill="#FFFFFF" />
  <g transform="translate(24 24)">
    <rect x="0" y="0" width="152" height="152" rx="34" fill="#FFFFFF" stroke="#111111" stroke-width="10" />
    <g fill="none" stroke="#111111" stroke-linecap="round" stroke-linejoin="round" stroke-width="16">
      <path d="M32 50h66" />
      <path d="M64 38v76" />
      <path d="M88 62c10-10 27-12 39-6 10 5 14 16 10 26-4 11-16 16-29 19l-10 2c-12 3-20 7-25 16-4 8-1 19 9 24 12 7 31 6 45-5" />
      <path d="M48 118h56" />
      <path d="M120 118h1" />
    </g>
    <circle cx="120" cy="118" r="8" fill="#8B5CF6" />
  </g>
  <g transform="translate(214 38)" fill="none" stroke="#111111" stroke-linecap="round" stroke-linejoin="round" stroke-width="16">
    <path d="M38 46h54" />
    <path d="M64 32v94" />
    <path d="M140 60c10-12 31-14 45-6 11 7 15 21 7 31-6 8-16 11-28 14l-10 2c-14 3-23 8-28 18-5 10-1 23 12 29 15 8 40 6 57-9" />
    <path d="M224 60v39c0 20 12 31 31 31 18 0 31-11 31-31V60" />
    <path d="M324 130V60" />
    <path d="M324 86c0-16 11-28 28-28 17 0 29 12 29 30v42" />
    <path d="M381 86c0-16 11-28 28-28 17 0 29 12 29 30v42" />
    <path d="M478 60v70" />
  </g>
  <circle cx="692" cy="72" r="9" fill="#111111" />
</svg>
